<?xml version="1.0" encoding="UTF-8" standalone="no"?>
<svg
   width="485.005"
   zoomAndPan="magnify"
   viewBox="0 0 363.75375 81.390619"
   height="108.52083"
   preserveAspectRatio="xMidYMid"
   version="1.2"
   id="svg12"
   xmlns="http://www.w3.org/2000/svg"
   xmlns:svg="http://www.w3.org/2000/svg">
  <defs
     id="defs2">
    <clipPath
       id="9491021af8">
      <path
         d="m 204,133 h 168.82031 v 82 H 204 Z m 0,0"
         id="path1" />
    </clipPath>
    <clipPath
       id="5f4df05bbb">
      <path
         d="m 224,201 h 148.82031 v 11 H 224 Z m 0,0"
         id="path2" />
    </clipPath>
  </defs>
  <g
     id="306c3282e0"
     transform="translate(-9.0665522,-133.57421)">
    <g
       clip-rule="nonzero"
       clip-path="url(#9491021af8)"
       id="g3">
      <path
         style="fill:#2d9cdb;fill-opacity:1;fill-rule:nonzero;stroke:none"
         d="m 221.83203,163.23047 -2.50391,9.4414 10.16407,-1.17187 -2.26563,3.66797 -8.75781,1.17187 c -0.67578,2.8086 -1.82422,7.04688 -3.4375,12.71875 -3.49219,12.27735 -5.23828,20.05469 -5.23828,23.33203 l -5.00391,2.57422 c 0,-4.47265 1.92969,-13.10937 5.78516,-25.90625 1.98047,-6.39843 3.20312,-10.50781 3.67187,-12.32812 -1.82422,0.46875 -3.48828,0.69922 -5,0.69922 -2.97265,0 -4.45703,-1.16797 -4.45703,-3.50782 0,-1.30078 0.98828,-2.86328 2.96875,-4.68359 2.86719,-2.65234 6.28125,-4.99609 10.24219,-7.02344 3.07422,-10.45703 5.28906,-17.01172 6.64453,-19.66406 1.82422,-3.58984 3.49219,-5.87891 5.00391,-6.86719 2.24218,-1.40625 4.55859,-2.10937 6.95703,-2.10937 2.39844,0 4.09375,0.67969 5.08203,2.03125 0.98828,1.35156 1.43359,2.9375 1.32812,4.75781 -0.26171,6.55469 -7.32031,14.17969 -21.18359,22.86719 z m 12.50781,-23.02344 c -2.91797,0 -5.08203,1.40625 -6.48828,4.21484 -1.09375,2.1875 -2.05859,4.8125 -2.89453,7.88282 -0.83203,3.07031 -1.43359,5.17578 -1.79687,6.32031 2.86718,-1.76953 5.9414,-4.16016 9.22265,-7.17969 3.28516,-3.01562 4.98047,-5.64453 5.08203,-7.88281 0.10547,-2.23438 -0.9375,-3.35547 -3.125,-3.35547 z m -18.99609,32.85547 1.71875,-6.86719 c -1.98047,0.83203 -3.54297,1.69141 -4.69141,2.57422 -1.09375,0.88281 -1.64062,1.64063 -1.64062,2.26172 0,1.35547 1.53515,2.03125 4.61328,2.03125 z m 32.34766,-12.25391 c -2.91797,0 -4.375,-1.16797 -4.375,-3.51172 0,-1.30078 0.36328,-2.39062 1.09375,-3.27734 0.73046,-0.88281 1.66796,-1.32422 2.8125,-1.32422 1.14843,0 2.08593,0.33594 2.8164,1.01172 0.73047,0.67969 1.09375,1.5625 1.09375,2.65625 0,1.08984 -0.3125,2.10547 -0.9375,3.04297 -0.625,0.9375 -1.46094,1.40234 -2.5039,1.40234 z m -1.01563,23.02344 1.5625,1.32422 c -1.25,2.39453 -2.91797,4.44922 -5,6.16406 -2.03516,1.66797 -3.88281,2.5 -5.55078,2.5 -2.91797,0 -4.37891,-2.03125 -4.37891,-6.08984 0,-5.04297 2.08594,-11.625 6.25391,-19.74219 0.9375,-1.76953 1.48437,-2.80859 1.64062,-3.12109 l 3.36329,2.03125 c -1.09375,1.97656 -2.44922,5.12109 -4.06641,9.4414 -1.5625,4.31641 -2.34375,7.10157 -2.34375,8.34766 0,1.19922 0.26172,2.05469 0.78125,2.57812 0.51953,0.51954 1.14453,0.77735 1.875,0.77735 1.41016,0 3.36328,-1.40235 5.86328,-4.21094 z m 27.875,-17.55859 c 1.30469,0 2.375,0.4414 3.20703,1.32422 0.83203,0.88671 1.25,2.03125 1.25,3.43359 0,2.8125 -1.61328,5.77734 -4.84765,8.89844 l -1.875,-1.48438 c 0.73046,-1.61328 1.09375,-2.78125 1.09375,-3.51172 0,-1.40234 -0.78125,-2.10547 -2.34375,-2.10547 -1.5625,0 -3.05079,0.98829 -4.45704,2.96485 -1.40625,1.97656 -3.07421,5.04687 -5.0039,9.20703 -1.875,4.10937 -3.3086,7.02344 -4.29688,8.74219 l -4.45703,-1.95313 c 2.86719,-6.5039 4.50781,-10.32422 4.92578,-11.46875 1.40625,-4.05859 2.10938,-9.21094 2.10938,-15.45312 l 4.3789,-1.16797 c -0.15625,3.3789 -0.39062,6.00781 -0.70312,7.8789 -0.3125,1.82032 -1.07031,4.8125 -2.26953,8.97657 5.26562,-9.52344 9.69531,-14.28125 13.28906,-14.28125 z m 58.82422,17.48047 1.64453,1.55859 c -2.97266,5.30859 -6.38672,7.96094 -10.24219,7.96094 -1.5625,0 -2.78906,-0.41797 -3.67578,-1.25 -0.83203,-0.88282 -1.25,-2.02735 -1.25,-3.4336 0,-1.45703 0.85938,-3.92578 2.58203,-7.41406 1.71875,-3.48437 2.62891,-6.13672 2.73438,-7.95703 0.0508,-0.83203 -0.20703,-1.51172 -0.78125,-2.03125 -0.51953,-0.51953 -1.25,-0.77734 -2.1875,-0.77734 -0.94141,0 -1.90235,0.23046 -2.89453,0.69921 -0.9375,0.41797 -1.875,1.1211 -2.8125,2.10938 -0.88672,0.98828 -1.72266,1.94922 -2.50391,2.88672 -0.73047,0.9375 -1.5625,2.26172 -2.5,3.98047 -0.88672,1.71484 -1.64062,3.14453 -2.26562,4.28906 -1.09766,2.13281 -2.66016,5.33594 -4.69141,9.60156 l -4.69141,-1.64062 c 0,-0.15625 0.85938,-3.09375 2.57813,-8.81641 1.72265,-5.72266 2.58203,-9.13281 2.58203,-10.22266 0,-1.09375 -0.26172,-1.875 -0.78125,-2.34375 -0.52344,-0.51953 -1.17578,-0.77734 -1.95703,-0.77734 -2.34375,0 -5.60156,2.91016 -9.76953,8.73828 -4.11719,5.82813 -6.75,10.79688 -7.89844,14.90625 l -4.45313,-1.48437 c 0.25782,-2.75782 1.48438,-7.69922 3.67188,-14.82813 2.19141,-7.17578 4.03906,-12.0664 5.55078,-14.66797 l 3.51953,1.2461 c -1.61719,3.58984 -2.73828,6.63281 -3.36328,9.13281 -0.625,2.44531 -1.17187,5.07031 -1.64062,7.87891 4.48046,-6.39844 8.23437,-10.8711 11.25781,-13.42188 3.02344,-2.60156 5.75781,-3.90234 8.20703,-3.90234 2.66016,0 3.98828,1.32812 3.98828,3.98047 0,1.04296 -0.46875,3.09765 -1.40625,6.16796 -0.88672,3.06641 -1.58984,5.48829 -2.11328,7.25391 7.19141,-11.54687 13.62891,-17.32422 19.30859,-17.32422 1.41016,0 2.53125,0.44531 3.36328,1.32813 0.83204,0.83203 1.25,2.10547 1.25,3.82422 0,1.66406 -0.98828,4.44921 -2.96875,8.34765 -1.92968,3.90235 -2.89453,6.375 -2.89453,7.41406 0,0.98829 0.21094,1.71875 0.625,2.1875 0.41797,0.46875 0.94141,0.69922 1.56641,0.69922 1.35547,0 3.125,-1.29687 5.3125,-3.89843 z m 37.03125,2.26171 1.79687,1.32813 c -0.72656,1.55859 -2.08203,3.04297 -4.0625,4.44531 -1.92968,1.40625 -3.70312,2.10938 -5.3164,2.10938 -3.07422,0 -4.61328,-1.61328 -4.61328,-4.83985 0,-1.50781 0.39062,-3.30468 1.17187,-5.38281 l -2.89062,2.96484 c -2.81641,2.85938 -5.26563,4.78516 -7.34766,5.77344 -2.03516,0.98828 -4.03906,1.48438 -6.01953,1.48438 -1.98047,0 -3.49219,-0.54688 -4.53516,-1.64063 -0.99218,-1.14453 -1.48437,-2.70312 -1.48437,-4.68359 0,-3.64063 1.40625,-7.23047 4.21875,-10.76563 2.8164,-3.58984 6.41015,-6.5039 10.78906,-8.74218 4.37891,-2.23438 8.75781,-3.37891 13.13281,-3.4336 l 0.15625,2.57422 -3.28125,0.70313 c -4.74218,1.04296 -8.9375,3.12109 -12.58593,6.24218 -3.59766,3.125 -5.39454,6.2461 -5.39454,9.36719 0,3.06641 1.25,4.60156 3.75,4.60156 2.34766,0 5.23829,-1.63672 8.67969,-4.91406 3.4375,-3.27734 6.30469,-7.12891 8.59766,-11.55078 l 3.28515,1.95312 c -3.23046,6.5 -4.84765,10.63672 -4.84765,12.40625 0,0.72657 0.23437,1.35157 0.70312,1.8711 0.52344,0.46875 1.01563,0.70312 1.48438,0.70312 0.52344,0 0.86328,-0.0273 1.01953,-0.0781 0.15625,-0.0508 0.3125,-0.10156 0.46875,-0.15625 0.15625,-0.10156 0.33594,-0.23438 0.54687,-0.39063 0.26172,-0.15625 0.46875,-0.3125 0.625,-0.46875 0.20704,-0.15234 0.51954,-0.38672 0.9375,-0.69922 0.41797,-0.3125 0.75391,-0.57421 1.01563,-0.78125 z m 0,0"
         id="path3" />
    </g>
    <g
       clip-rule="nonzero"
       clip-path="url(#5f4df05bbb)"
       id="g4"
       style="fill:#f9f9f9">
      <path
         style="fill:#f9f9f9;fill-opacity:1;fill-rule:nonzero;stroke:none"
         d="M 229.35937,201.82422 H 368 c 0.32031,0 0.63672,0.0312 0.95312,0.0937 0.3125,0.0625 0.6211,0.15234 0.91797,0.27734 0.29297,0.1211 0.57422,0.26953 0.84375,0.44922 0.26563,0.17578 0.51172,0.37891 0.73828,0.60547 0.22657,0.22656 0.42969,0.47266 0.60938,0.73828 0.17578,0.26953 0.32812,0.55078 0.44922,0.84375 0.125,0.29688 0.21875,0.60156 0.28125,0.91406 0.0625,0.31641 0.0937,0.63282 0.0937,0.95313 0,0.32031 -0.0312,0.63672 -0.0937,0.95312 -0.0625,0.3125 -0.15625,0.61719 -0.28125,0.91407 -0.1211,0.29687 -0.27344,0.57812 -0.44922,0.84375 -0.17969,0.26562 -0.38281,0.51171 -0.60938,0.73828 -0.22656,0.22656 -0.47265,0.42968 -0.73828,0.60547 -0.26953,0.17968 -0.55078,0.32812 -0.84375,0.45312 -0.29687,0.12109 -0.60547,0.21484 -0.91797,0.27734 -0.3164,0.0625 -0.63281,0.0937 -0.95312,0.0937 H 229.35937 c -0.32031,0 -0.63671,-0.0312 -0.95312,-0.0937 -0.3125,-0.0625 -0.62109,-0.15625 -0.91406,-0.27734 -0.29688,-0.125 -0.57813,-0.27344 -0.84766,-0.45312 -0.26562,-0.17579 -0.51172,-0.37891 -0.73828,-0.60547 -0.22656,-0.22657 -0.42969,-0.47266 -0.60938,-0.73828 -0.17578,-0.26563 -0.32812,-0.54688 -0.44921,-0.84375 -0.125,-0.29688 -0.21875,-0.60157 -0.28125,-0.91407 -0.0625,-0.3164 -0.0937,-0.63281 -0.0937,-0.95312 0,-0.32031 0.0312,-0.63672 0.0937,-0.95313 0.0625,-0.3125 0.15625,-0.61718 0.28125,-0.91406 0.12109,-0.29297 0.27343,-0.57422 0.44921,-0.84375 0.17969,-0.26562 0.38282,-0.51172 0.60938,-0.73828 0.22656,-0.22656 0.47266,-0.42969 0.73828,-0.60547 0.26953,-0.17969 0.55078,-0.32812 0.84766,-0.44922 0.29297,-0.125 0.60156,-0.21484 0.91406,-0.27734 0.31641,-0.0625 0.63281,-0.0937 0.95312,-0.0937 z m 0,0"
         id="path4" />
    </g>
    <g
       style="fill:#f9f9f9;fill-opacity:1"
       id="g6">
      <g
         transform="translate(2.113427,203.27239)"
         id="g5"
         style="fill:#f9f9f9">
        <path
           style="fill:#f9f9f9;stroke:none"
           d="M 52.515625,-57.453125 V 0 H 45.78125 L 14.46875,-45.109375 H 13.921875 V 0 H 6.953125 V -57.453125 H 13.6875 l 31.421875,45.21875 h 0.5625 v -45.21875 z m 0,0"
           id="path5" />
      </g>
    </g>
    <g
       style="fill:#f9f9f9;fill-opacity:1"
       id="g8">
      <g
         transform="translate(61.58474,203.27239)"
         id="g7"
         style="fill:#f9f9f9">
        <path
           style="fill:#f9f9f9;stroke:none"
           d="m 24.125,0.890625 c -4.148438,0 -7.726562,-0.9140625 -10.734375,-2.75 -3,-1.84375 -5.308594,-4.425781 -6.921875,-7.75 -1.617188,-3.320313 -2.421875,-7.1875 -2.421875,-11.59375 0,-4.414063 0.804687,-8.3125 2.421875,-11.6875 1.613281,-3.375 3.875,-6.007813 6.78125,-7.90625 2.914062,-1.90625 6.316406,-2.859375 10.203125,-2.859375 2.238281,0 4.453125,0.375 6.640625,1.125 2.195312,0.75 4.191406,1.964844 5.984375,3.640625 1.789063,1.667969 3.21875,3.875 4.28125,6.625 1.070313,2.75 1.609375,6.136719 1.609375,10.15625 v 2.8125 H 10.6875 c 0.144531,4.59375 1.445312,8.121094 3.90625,10.578125 2.46875,2.449219 5.644531,3.671875 9.53125,3.671875 2.601562,0 4.835938,-0.5625 6.703125,-1.6875 1.875,-1.125 3.234375,-2.804687 4.078125,-5.046875 l 6.390625,1.796875 c -1.011719,3.25 -3.03125,5.875 -6.0625,7.875 -3.03125,2 -6.734375,3 -11.109375,3 z M 10.6875,-25.03125 h 24.546875 c 0,-3.644531 -1.070313,-6.664062 -3.203125,-9.0625 -2.125,-2.40625 -4.984375,-3.609375 -8.578125,-3.609375 -2.523437,0 -4.710937,0.589844 -6.5625,1.765625 -1.855469,1.179688 -3.320313,2.734375 -4.390625,4.671875 -1.0625,1.9375 -1.667969,4.015625 -1.8125,6.234375 z m 0,0"
           id="path6" />
      </g>
    </g>
    <g
       style="fill:#f9f9f9;fill-opacity:1"
       id="g10">
      <g
         transform="translate(106.46873,203.27239)"
         id="g9"
         style="fill:#f9f9f9">
        <path
           style="fill:#f9f9f9;stroke:none"
           d="m 11,-43.09375 10.328125,17.625 10.3125,-17.625 H 39.28125 L 25.359375,-21.546875 39.28125,0 H 31.640625 L 21.328125,-16.71875 11,0 H 3.359375 L 17.0625,-21.546875 3.359375,-43.09375 Z m 0,0"
           id="path8" />
      </g>
    </g>
    <g
       style="fill:#f9f9f9;fill-opacity:1"
       id="g12">
      <g
         transform="translate(149.10854,203.27239)"
         id="g11"
         style="fill:#f9f9f9">
        <path
           style="fill:#f9f9f9;stroke:none"
           d="m 18.734375,1.015625 c -2.730469,0 -5.210937,-0.523437 -7.4375,-1.5625 C 9.078125,-1.585938 7.3125,-3.09375 6,-5.0625 4.695312,-7.039062 4.046875,-9.429688 4.046875,-12.234375 c 0,-2.46875 0.484375,-4.472656 1.453125,-6.015625 0.96875,-1.539062 2.265625,-2.75 3.890625,-3.625 1.632813,-0.882812 3.4375,-1.546875 5.40625,-1.984375 1.976563,-0.4375 3.96875,-0.785156 5.96875,-1.046875 2.613281,-0.34375 4.738281,-0.601562 6.375,-0.78125 1.632813,-0.175781 2.832031,-0.476562 3.59375,-0.90625 0.757813,-0.425781 1.140625,-1.175781 1.140625,-2.25 v -0.21875 c 0,-2.769531 -0.757812,-4.921875 -2.265625,-6.453125 -1.5,-1.53125 -3.777344,-2.296875 -6.828125,-2.296875 -3.167969,0 -5.648438,0.695312 -7.4375,2.078125 -1.792969,1.375 -3.054688,2.851563 -3.78125,4.421875 l -6.28125,-2.234375 c 1.113281,-2.625 2.609375,-4.671875 4.484375,-6.140625 1.882813,-1.46875 3.941406,-2.492188 6.171875,-3.078125 2.238281,-0.59375 4.445312,-0.890625 6.625,-0.890625 1.375,0 2.960938,0.167969 4.765625,0.5 1.8125,0.324219 3.5625,0.992188 5.25,2 1.695313,1.011719 3.101563,2.539062 4.21875,4.578125 1.125,2.03125 1.6875,4.761719 1.6875,8.1875 V 0 H 31.875 v -5.828125 h -0.34375 c -0.449219,0.929687 -1.199219,1.929687 -2.25,3 -1.042969,1.0625 -2.433594,1.96875 -4.171875,2.71875 -1.742187,0.75 -3.867187,1.125 -6.375,1.125 z M 19.75,-4.9375 c 2.613281,0 4.820312,-0.515625 6.625,-1.546875 1.8125,-1.03125 3.179688,-2.359375 4.109375,-3.984375 0.925781,-1.625 1.390625,-3.332031 1.390625,-5.125 v -6.0625 c -0.28125,0.335938 -0.898438,0.636719 -1.84375,0.90625 -0.949219,0.273438 -2.039062,0.507812 -3.265625,0.703125 -1.21875,0.199219 -2.40625,0.371094 -3.5625,0.515625 -1.148437,0.136719 -2.074219,0.25 -2.78125,0.34375 -1.71875,0.21875 -3.324219,0.578125 -4.8125,1.078125 -1.492187,0.5 -2.6875,1.242187 -3.59375,2.21875 -0.90625,0.980469 -1.359375,2.3125 -1.359375,4 0,2.304687 0.851562,4.039063 2.5625,5.203125 1.71875,1.167969 3.894531,1.75 6.53125,1.75 z m 0,0"
           id="path10" />
      </g>
    </g>
  </g>
</svg>
