<svg xmlns="http://www.w3.org/2000/svg" xmlns:xlink="http://www.w3.org/1999/xlink" width="500" zoomAndPan="magnify" viewBox="0 0 375 374.999991" height="500" preserveAspectRatio="xMidYMid meet" version="1.2"><defs><clipPath id="9491021af8"><path d="M 204 133 L 372.820312 133 L 372.820312 215 L 204 215 Z M 204 133 "/></clipPath><clipPath id="5f4df05bbb"><path d="M 224 201 L 372.820312 201 L 372.820312 212 L 224 212 Z M 224 201 "/></clipPath></defs><g id="306c3282e0"><g clip-rule="nonzero" clip-path="url(#9491021af8)"><path style=" stroke:none;fill-rule:nonzero;fill:#2d9cdb;fill-opacity:1;" d="M 221.832031 163.230469 L 219.328125 172.671875 L 229.492188 171.5 L 227.226562 175.167969 L 218.46875 176.339844 C 217.792969 179.148438 216.644531 183.386719 215.03125 189.058594 C 211.539062 201.335938 209.792969 209.113281 209.792969 212.390625 L 204.789062 214.964844 C 204.789062 210.492188 206.71875 201.855469 210.574219 189.058594 C 212.554688 182.660156 213.777344 178.550781 214.246094 176.730469 C 212.421875 177.199219 210.757812 177.429688 209.246094 177.429688 C 206.273438 177.429688 204.789062 176.261719 204.789062 173.921875 C 204.789062 172.621094 205.777344 171.058594 207.757812 169.238281 C 210.625 166.585938 214.039062 164.242188 218 162.214844 C 221.074219 151.757812 223.289062 145.203125 224.644531 142.550781 C 226.46875 138.960938 228.136719 136.671875 229.648438 135.683594 C 231.890625 134.277344 234.207031 133.574219 236.605469 133.574219 C 239.003906 133.574219 240.699219 134.253906 241.6875 135.605469 C 242.675781 136.957031 243.121094 138.542969 243.015625 140.363281 C 242.753906 146.917969 235.695312 154.542969 221.832031 163.230469 Z M 234.339844 140.207031 C 231.421875 140.207031 229.257812 141.613281 227.851562 144.421875 C 226.757812 146.609375 225.792969 149.234375 224.957031 152.304688 C 224.125 155.375 223.523438 157.480469 223.160156 158.625 C 226.027344 156.855469 229.101562 154.464844 232.382812 151.445312 C 235.667969 148.429688 237.363281 145.800781 237.464844 143.5625 C 237.570312 141.328125 236.527344 140.207031 234.339844 140.207031 Z M 215.34375 173.0625 L 217.0625 166.195312 C 215.082031 167.027344 213.519531 167.886719 212.371094 168.769531 C 211.277344 169.652344 210.730469 170.410156 210.730469 171.03125 C 210.730469 172.386719 212.265625 173.0625 215.34375 173.0625 Z M 247.691406 160.808594 C 244.773438 160.808594 243.316406 159.640625 243.316406 157.296875 C 243.316406 155.996094 243.679688 154.90625 244.410156 154.019531 C 245.140625 153.136719 246.078125 152.695312 247.222656 152.695312 C 248.371094 152.695312 249.308594 153.03125 250.039062 153.707031 C 250.769531 154.386719 251.132812 155.269531 251.132812 156.363281 C 251.132812 157.453125 250.820312 158.46875 250.195312 159.40625 C 249.570312 160.34375 248.734375 160.808594 247.691406 160.808594 Z M 246.675781 183.832031 L 248.238281 185.15625 C 246.988281 187.550781 245.320312 189.605469 243.238281 191.320312 C 241.203125 192.988281 239.355469 193.820312 237.6875 193.820312 C 234.769531 193.820312 233.308594 191.789062 233.308594 187.730469 C 233.308594 182.6875 235.394531 176.105469 239.5625 167.988281 C 240.5 166.21875 241.046875 165.179688 241.203125 164.867188 L 244.566406 166.898438 C 243.472656 168.875 242.117188 172.019531 240.5 176.339844 C 238.9375 180.65625 238.15625 183.441406 238.15625 184.6875 C 238.15625 185.886719 238.417969 186.742188 238.9375 187.265625 C 239.457031 187.785156 240.082031 188.042969 240.8125 188.042969 C 242.222656 188.042969 244.175781 186.640625 246.675781 183.832031 Z M 274.550781 166.273438 C 275.855469 166.273438 276.925781 166.714844 277.757812 167.597656 C 278.589844 168.484375 279.007812 169.628906 279.007812 171.03125 C 279.007812 173.84375 277.394531 176.808594 274.160156 179.929688 L 272.285156 178.445312 C 273.015625 176.832031 273.378906 175.664062 273.378906 174.933594 C 273.378906 173.53125 272.597656 172.828125 271.035156 172.828125 C 269.472656 172.828125 267.984375 173.816406 266.578125 175.792969 C 265.171875 177.769531 263.503906 180.839844 261.574219 185 C 259.699219 189.109375 258.265625 192.023438 257.277344 193.742188 L 252.820312 191.789062 C 255.6875 185.285156 257.328125 181.464844 257.746094 180.320312 C 259.152344 176.261719 259.855469 171.109375 259.855469 164.867188 L 264.234375 163.699219 C 264.078125 167.078125 263.84375 169.707031 263.53125 171.578125 C 263.21875 173.398438 262.460938 176.390625 261.261719 180.554688 C 266.527344 171.03125 270.957031 166.273438 274.550781 166.273438 Z M 333.375 183.753906 L 335.019531 185.3125 C 332.046875 190.621094 328.632812 193.273438 324.777344 193.273438 C 323.214844 193.273438 321.988281 192.855469 321.101562 192.023438 C 320.269531 191.140625 319.851562 189.996094 319.851562 188.589844 C 319.851562 187.132812 320.710938 184.664062 322.433594 181.175781 C 324.152344 177.691406 325.0625 175.039062 325.167969 173.21875 C 325.21875 172.386719 324.960938 171.707031 324.386719 171.1875 C 323.867188 170.667969 323.136719 170.410156 322.199219 170.410156 C 321.257812 170.410156 320.296875 170.640625 319.304688 171.109375 C 318.367188 171.527344 317.429688 172.230469 316.492188 173.21875 C 315.605469 174.207031 314.769531 175.167969 313.988281 176.105469 C 313.257812 177.042969 312.425781 178.367188 311.488281 180.085938 C 310.601562 181.800781 309.847656 183.230469 309.222656 184.375 C 308.125 186.507812 306.5625 189.710938 304.53125 193.976562 L 299.839844 192.335938 C 299.839844 192.179688 300.699219 189.242188 302.417969 183.519531 C 304.140625 177.796875 305 174.386719 305 173.296875 C 305 172.203125 304.738281 171.421875 304.21875 170.953125 C 303.695312 170.433594 303.042969 170.175781 302.261719 170.175781 C 299.917969 170.175781 296.660156 173.085938 292.492188 178.914062 C 288.375 184.742188 285.742188 189.710938 284.59375 193.820312 L 280.140625 192.335938 C 280.398438 189.578125 281.625 184.636719 283.8125 177.507812 C 286.003906 170.332031 287.851562 165.441406 289.363281 162.839844 L 292.882812 164.085938 C 291.265625 167.675781 290.144531 170.71875 289.519531 173.21875 C 288.894531 175.664062 288.347656 178.289062 287.878906 181.097656 C 292.359375 174.699219 296.113281 170.226562 299.136719 167.675781 C 302.160156 165.074219 304.894531 163.773438 307.34375 163.773438 C 310.003906 163.773438 311.332031 165.101562 311.332031 167.753906 C 311.332031 168.796875 310.863281 170.851562 309.925781 173.921875 C 309.039062 176.988281 308.335938 179.410156 307.8125 181.175781 C 315.003906 169.628906 321.441406 163.851562 327.121094 163.851562 C 328.53125 163.851562 329.652344 164.296875 330.484375 165.179688 C 331.316406 166.011719 331.734375 167.285156 331.734375 169.003906 C 331.734375 170.667969 330.746094 173.453125 328.765625 177.351562 C 326.835938 181.253906 325.871094 183.726562 325.871094 184.765625 C 325.871094 185.753906 326.082031 186.484375 326.496094 186.953125 C 326.914062 187.421875 327.4375 187.652344 328.0625 187.652344 C 329.417969 187.652344 331.1875 186.355469 333.375 183.753906 Z M 370.40625 186.015625 L 372.203125 187.34375 C 371.476562 188.902344 370.121094 190.386719 368.140625 191.789062 C 366.210938 193.195312 364.4375 193.898438 362.824219 193.898438 C 359.75 193.898438 358.210938 192.285156 358.210938 189.058594 C 358.210938 187.550781 358.601562 185.753906 359.382812 183.675781 L 356.492188 186.640625 C 353.675781 189.5 351.226562 191.425781 349.144531 192.414062 C 347.109375 193.402344 345.105469 193.898438 343.125 193.898438 C 341.144531 193.898438 339.632812 193.351562 338.589844 192.257812 C 337.597656 191.113281 337.105469 189.554688 337.105469 187.574219 C 337.105469 183.933594 338.511719 180.34375 341.324219 176.808594 C 344.140625 173.21875 347.734375 170.304688 352.113281 168.066406 C 356.492188 165.832031 360.871094 164.6875 365.246094 164.632812 L 365.402344 167.207031 L 362.121094 167.910156 C 357.378906 168.953125 353.183594 171.03125 349.535156 174.152344 C 345.9375 177.277344 344.140625 180.398438 344.140625 183.519531 C 344.140625 186.585938 345.390625 188.121094 347.890625 188.121094 C 350.238281 188.121094 353.128906 186.484375 356.570312 183.207031 C 360.007812 179.929688 362.875 176.078125 365.167969 171.65625 L 368.453125 173.609375 C 365.222656 180.109375 363.605469 184.246094 363.605469 186.015625 C 363.605469 186.742188 363.839844 187.367188 364.308594 187.886719 C 364.832031 188.355469 365.324219 188.589844 365.792969 188.589844 C 366.316406 188.589844 366.65625 188.5625 366.8125 188.511719 C 366.96875 188.460938 367.125 188.410156 367.28125 188.355469 C 367.4375 188.253906 367.617188 188.121094 367.828125 187.964844 C 368.089844 187.808594 368.296875 187.652344 368.453125 187.496094 C 368.660156 187.34375 368.972656 187.109375 369.390625 186.796875 C 369.808594 186.484375 370.144531 186.222656 370.40625 186.015625 Z M 370.40625 186.015625 "/></g><g clip-rule="nonzero" clip-path="url(#5f4df05bbb)"><path style=" stroke:none;fill-rule:nonzero;fill:#bdbdbd;fill-opacity:1;" d="M 229.359375 201.824219 L 368 201.824219 C 368.320312 201.824219 368.636719 201.855469 368.953125 201.917969 C 369.265625 201.980469 369.574219 202.070312 369.871094 202.195312 C 370.164062 202.316406 370.445312 202.464844 370.714844 202.644531 C 370.980469 202.820312 371.226562 203.023438 371.453125 203.25 C 371.679688 203.476562 371.882812 203.722656 372.0625 203.988281 C 372.238281 204.257812 372.390625 204.539062 372.511719 204.832031 C 372.636719 205.128906 372.730469 205.433594 372.792969 205.746094 C 372.855469 206.0625 372.886719 206.378906 372.886719 206.699219 C 372.886719 207.019531 372.855469 207.335938 372.792969 207.652344 C 372.730469 207.964844 372.636719 208.269531 372.511719 208.566406 C 372.390625 208.863281 372.238281 209.144531 372.0625 209.410156 C 371.882812 209.675781 371.679688 209.921875 371.453125 210.148438 C 371.226562 210.375 370.980469 210.578125 370.714844 210.753906 C 370.445312 210.933594 370.164062 211.082031 369.871094 211.207031 C 369.574219 211.328125 369.265625 211.421875 368.953125 211.484375 C 368.636719 211.546875 368.320312 211.578125 368 211.578125 L 229.359375 211.578125 C 229.039062 211.578125 228.722656 211.546875 228.40625 211.484375 C 228.09375 211.421875 227.785156 211.328125 227.492188 211.207031 C 227.195312 211.082031 226.914062 210.933594 226.644531 210.753906 C 226.378906 210.578125 226.132812 210.375 225.90625 210.148438 C 225.679688 209.921875 225.476562 209.675781 225.296875 209.410156 C 225.121094 209.144531 224.96875 208.863281 224.847656 208.566406 C 224.722656 208.269531 224.628906 207.964844 224.566406 207.652344 C 224.503906 207.335938 224.472656 207.019531 224.472656 206.699219 C 224.472656 206.378906 224.503906 206.0625 224.566406 205.746094 C 224.628906 205.433594 224.722656 205.128906 224.847656 204.832031 C 224.96875 204.539062 225.121094 204.257812 225.296875 203.988281 C 225.476562 203.722656 225.679688 203.476562 225.90625 203.25 C 226.132812 203.023438 226.378906 202.820312 226.644531 202.644531 C 226.914062 202.464844 227.195312 202.316406 227.492188 202.195312 C 227.785156 202.070312 228.09375 201.980469 228.40625 201.917969 C 228.722656 201.855469 229.039062 201.824219 229.359375 201.824219 Z M 229.359375 201.824219 "/></g><g style="fill:#000000;fill-opacity:1;"><g transform="translate(2.113427, 203.272391)"><path style="stroke:none" d="M 52.515625 -57.453125 L 52.515625 0 L 45.78125 0 L 14.46875 -45.109375 L 13.921875 -45.109375 L 13.921875 0 L 6.953125 0 L 6.953125 -57.453125 L 13.6875 -57.453125 L 45.109375 -12.234375 L 45.671875 -12.234375 L 45.671875 -57.453125 Z M 52.515625 -57.453125 "/></g></g><g style="fill:#000000;fill-opacity:1;"><g transform="translate(61.58474, 203.272391)"><path style="stroke:none" d="M 24.125 0.890625 C 19.976562 0.890625 16.398438 -0.0234375 13.390625 -1.859375 C 10.390625 -3.703125 8.082031 -6.285156 6.46875 -9.609375 C 4.851562 -12.929688 4.046875 -16.796875 4.046875 -21.203125 C 4.046875 -25.617188 4.851562 -29.515625 6.46875 -32.890625 C 8.082031 -36.265625 10.34375 -38.898438 13.25 -40.796875 C 16.164062 -42.703125 19.566406 -43.65625 23.453125 -43.65625 C 25.691406 -43.65625 27.90625 -43.28125 30.09375 -42.53125 C 32.289062 -41.78125 34.285156 -40.566406 36.078125 -38.890625 C 37.867188 -37.222656 39.296875 -35.015625 40.359375 -32.265625 C 41.429688 -29.515625 41.96875 -26.128906 41.96875 -22.109375 L 41.96875 -19.296875 L 10.6875 -19.296875 C 10.832031 -14.703125 12.132812 -11.175781 14.59375 -8.71875 C 17.0625 -6.269531 20.238281 -5.046875 24.125 -5.046875 C 26.726562 -5.046875 28.960938 -5.609375 30.828125 -6.734375 C 32.703125 -7.859375 34.0625 -9.539062 34.90625 -11.78125 L 41.296875 -9.984375 C 40.285156 -6.734375 38.265625 -4.109375 35.234375 -2.109375 C 32.203125 -0.109375 28.5 0.890625 24.125 0.890625 Z M 10.6875 -25.03125 L 35.234375 -25.03125 C 35.234375 -28.675781 34.164062 -31.695312 32.03125 -34.09375 C 29.90625 -36.5 27.046875 -37.703125 23.453125 -37.703125 C 20.929688 -37.703125 18.742188 -37.113281 16.890625 -35.9375 C 15.035156 -34.757812 13.570312 -33.203125 12.5 -31.265625 C 11.4375 -29.328125 10.832031 -27.25 10.6875 -25.03125 Z M 10.6875 -25.03125 "/></g></g><g style="fill:#000000;fill-opacity:1;"><g transform="translate(106.468729, 203.272391)"><path style="stroke:none" d="M 11 -43.09375 L 21.328125 -25.46875 L 31.640625 -43.09375 L 39.28125 -43.09375 L 25.359375 -21.546875 L 39.28125 0 L 31.640625 0 L 21.328125 -16.71875 L 11 0 L 3.359375 0 L 17.0625 -21.546875 L 3.359375 -43.09375 Z M 11 -43.09375 "/></g></g><g style="fill:#000000;fill-opacity:1;"><g transform="translate(149.108542, 203.272391)"><path style="stroke:none" d="M 18.734375 1.015625 C 16.003906 1.015625 13.523438 0.492188 11.296875 -0.546875 C 9.078125 -1.585938 7.3125 -3.09375 6 -5.0625 C 4.695312 -7.039062 4.046875 -9.429688 4.046875 -12.234375 C 4.046875 -14.703125 4.53125 -16.707031 5.5 -18.25 C 6.46875 -19.789062 7.765625 -21 9.390625 -21.875 C 11.023438 -22.757812 12.828125 -23.421875 14.796875 -23.859375 C 16.773438 -24.296875 18.765625 -24.644531 20.765625 -24.90625 C 23.378906 -25.25 25.503906 -25.507812 27.140625 -25.6875 C 28.773438 -25.863281 29.972656 -26.164062 30.734375 -26.59375 C 31.492188 -27.019531 31.875 -27.769531 31.875 -28.84375 L 31.875 -29.0625 C 31.875 -31.832031 31.117188 -33.984375 29.609375 -35.515625 C 28.109375 -37.046875 25.832031 -37.8125 22.78125 -37.8125 C 19.613281 -37.8125 17.132812 -37.117188 15.34375 -35.734375 C 13.550781 -34.359375 12.289062 -32.882812 11.5625 -31.3125 L 5.28125 -33.546875 C 6.394531 -36.171875 7.890625 -38.21875 9.765625 -39.6875 C 11.648438 -41.15625 13.707031 -42.179688 15.9375 -42.765625 C 18.175781 -43.359375 20.382812 -43.65625 22.5625 -43.65625 C 23.9375 -43.65625 25.523438 -43.488281 27.328125 -43.15625 C 29.140625 -42.832031 30.890625 -42.164062 32.578125 -41.15625 C 34.273438 -40.144531 35.679688 -38.617188 36.796875 -36.578125 C 37.921875 -34.546875 38.484375 -31.816406 38.484375 -28.390625 L 38.484375 0 L 31.875 0 L 31.875 -5.828125 L 31.53125 -5.828125 C 31.082031 -4.898438 30.332031 -3.898438 29.28125 -2.828125 C 28.238281 -1.765625 26.847656 -0.859375 25.109375 -0.109375 C 23.367188 0.640625 21.242188 1.015625 18.734375 1.015625 Z M 19.75 -4.9375 C 22.363281 -4.9375 24.570312 -5.453125 26.375 -6.484375 C 28.1875 -7.515625 29.554688 -8.84375 30.484375 -10.46875 C 31.410156 -12.09375 31.875 -13.800781 31.875 -15.59375 L 31.875 -21.65625 C 31.59375 -21.320312 30.976562 -21.019531 30.03125 -20.75 C 29.082031 -20.476562 27.992188 -20.242188 26.765625 -20.046875 C 25.546875 -19.847656 24.359375 -19.675781 23.203125 -19.53125 C 22.054688 -19.394531 21.128906 -19.28125 20.421875 -19.1875 C 18.703125 -18.96875 17.097656 -18.609375 15.609375 -18.109375 C 14.117188 -17.609375 12.921875 -16.867188 12.015625 -15.890625 C 11.109375 -14.910156 10.65625 -13.578125 10.65625 -11.890625 C 10.65625 -9.585938 11.507812 -7.851562 13.21875 -6.6875 C 14.9375 -5.519531 17.113281 -4.9375 19.75 -4.9375 Z M 19.75 -4.9375 "/></g></g></g></svg>